<svg xmlns="http://www.w3.org/2000/svg" width="64" height="64" viewBox="0 0 64 64"><circle cx="32" cy="32" r="32" fill="#006866"/><path fill="#f6eade" d="M48.6 23.5a6.8 6.8 0 0 0-6-3.6H21.4a6.8 6.8 0 0 0-6 3.6 6.2 6.2 0 0 0-.9 3.2v10.6a6.9 6.9 0 0 0 6.9 6.8h21.2a6.9 6.9 0 0 0 6.9-6.8V26.7a6.2 6.2 0 0 0-.9-3.2zm-6-1.1a4.3 4.3 0 0 1 3.1 1.2L32.5 35.3a.9.9 0 0 1-1 0L18.3 23.6a4.3 4.3 0 0 1 3.1-1.2zM47 37.3a4.4 4.4 0 0 1-4.4 4.3H21.4a4.4 4.4 0 0 1-4.4-4.3V26.7a2.8 2.8 0 0 1 .1-.9l12.8 11.3a3.2 3.2 0 0 0 4.2 0l12.8-11.3a2.8 2.8 0 0 1 .1.9z"/></svg>