<svg xmlns="http://www.w3.org/2000/svg" width="64" height="64" viewBox="0 0 64 64"><circle cx="32" cy="32" r="32" fill="#006866"/><g fill="#f6eade"><path d="M18.1 47.8v-1.9l2.2-.5 1.1-.3a1.4 1.4 0 0 0 .9-1.1 2.5 2.5 0 0 0 .1-.8c0-4.2.1-8.4.1-12.6s-.1-6.3-.1-9.4a1.7 1.7 0 0 0-.1-.7 1.5 1.5 0 0 0-1.4-1.5l-2.2-.5c-.6-.1-.7-.2-.7-.7v-1.3c8.7.1 17.4.5 26.1-.3l-.5 9h-1.5c-.3-.1-.4-.4-.5-.7l-.6-2.2a9.7 9.7 0 0 0-1.1-2.3 2.4 2.4 0 0 0-2-1.1h-9.7c-.7 0-.8.1-.8.7v11.1c0 .1 0 .1.1.1h5.4l1.6-.2a1.2 1.2 0 0 0 1.1-.9 25 25 0 0 0 .7-2.6c.2-1.1.3-.9 1.2-.9h.9c0 .1.1.2.1.3-.1 3.5-.1 6.9-.1 10.4 0 .5-.2.6-.6.6h-.7c-.5 0-.7-.1-.8-.6l-.6-2.1a1.9 1.9 0 0 0-1.9-1.6h-6c-.3 0-.4.1-.4.3a3.4 3.4 0 0 1 0 1v8.1a5.9 5.9 0 0 0 .2 1.3 1.8 1.8 0 0 0 1.9 1.5h8.7a4.1 4.1 0 0 0 3.8-2.8l1.5-3.3.3-.5a.8.8 0 0 1 .7-.5h1.1v.4l-.3 2.3c-.2 1.8-.4 3.6-.7 5.5a1.6 1.6 0 0 1-.3 1.3H22l-2.3.2z"/><path d="M19.7 47.8l2.3-.2h-2.3z"/></g></svg>