<svg xmlns="http://www.w3.org/2000/svg" width="64" height="64" viewBox="0 0 64 64"><circle cx="32" cy="32" r="32" fill="#006866"/><path fill="#f6eade" d="M38.5 47.4h-13a8.9 8.9 0 0 1-8.9-8.9v-13a8.9 8.9 0 0 1 8.9-8.9h13a8.9 8.9 0 0 1 8.9 8.9v13a8.9 8.9 0 0 1-8.9 8.9zm-13-28.1a6.2 6.2 0 0 0-6.2 6.2v13a6.2 6.2 0 0 0 6.2 6.2h13a6.1 6.1 0 0 0 6.2-6.2v-13a6.1 6.1 0 0 0-6.2-6.2z"/><path fill="#f6eade" d="M32 40.4a8.4 8.4 0 1 1 8.4-8.4 8.5 8.5 0 0 1-8.4 8.4zm0-14.1a5.7 5.7 0 1 0 5.7 5.7 5.8 5.8 0 0 0-5.7-5.7z"/><circle cx="40.2" cy="24.2" r="1.5" fill="#f6eade"/></svg>