<svg xmlns="http://www.w3.org/2000/svg" width="2500" height="751" viewBox="0 0 2500 751"><path fill="#006866" d="M952.9 686.1c-6.2 15.4-29.8 64.9-102.4 64.9-33.6 0-59.1-9.6-79.8-29.3-23.1-21.6-32.7-48.6-32.7-81.3 0-41.3 16.9-66.8 31.8-81.7 24.5-24 53.3-29.3 78.3-29.3 42.3 0 66.9 16.8 81.3 34.1 22.1 26.5 25 59.2 25 81.8v4.8H798.6c0 12.5 3.4 25.9 10.1 35.1s19.2 19.7 41.8 19.7 39-10.6 48.6-27.4zm-53.8-73.5c-4.8-28.4-27.9-41.9-49.5-41.9s-44.3 14-49.1 41.9zM1039 393.8v350.5h-58.7V393.8zm75.5 19.2a35.1 35.1 0 1 1-35.1 35.1 35.3 35.3 0 0 1 35.1-35.1zm29.3 123.1v208.2h-58.7V536.1zm136.5 158.2h110.1v50h-213l118.3-158.2h-100v-50h202.9zm287.5-158.2h58.7v208.2h-58.7v-26.9c-21.1 30.3-49 33.6-63.9 33.6-64 0-106.3-50-106.3-111s41.9-110.6 103.4-110.6c15.9 0 47.1 2.9 66.8 33.6zM1458.2 640c0 33.1 24 59.1 57.7 59.1s57.7-26 57.7-59.1-24.1-58.7-57.7-58.7-57.7 25.5-57.7 58.7zm273.1-77c20.7-28.8 50-33.6 67.8-33.6 61.5 0 102.4 47.6 102.4 110.6s-42.3 111-103.9 111c-13.4 0-43.7-2.4-66.3-33.6v26.9h-58.7V393.8h58.7zm-5.8 77c0 33.1 24 59.1 57.7 59.1s57.7-26 57.7-59.1-24-58.7-57.7-58.7-57.7 25.5-57.7 58.7zm406.3 46.1c-6.3 15.4-29.8 64.9-102.4 64.9-33.7 0-59.2-9.6-79.9-29.3-23-21.6-32.7-48.6-32.7-81.3 0-41.3 16.9-66.8 31.8-81.7 24.5-24 53.3-29.3 78.3-29.3 42.4 0 66.9 16.8 81.3 34.1 22.1 26.5 25 59.2 25 81.8v4.8h-155.8c0 12.5 3.4 25.9 10.1 35.1s19.3 19.7 41.9 19.7 38.9-10.6 48.5-27.4zm-53.9-73.5c-4.8-28.4-27.9-41.9-49.5-41.9s-44.2 14-49 41.9zm149.5-26.5v158.2h-58.6V586.1h-23.1v-50h23.1V465h58.6v71.1h40.4v50zm71.2-192.3h58.6V563c11.1-15.3 30.8-33.6 64.4-33.6 18.3 0 45.2 5.3 61.6 25.5 14.4 17.8 16.3 38.4 16.3 58.6v130.8h-58.6V630.8c0-11.5-.5-29.8-11.1-40.8s-21.6-10.6-27.4-10.6c-15.4 0-27.4 5.3-36 18.3s-9.2 28.3-9.2 40.3v106.3h-58.6zm-991.9-101.5c-6.2 15.4-29.8 64.9-102.4 64.9-33.6 0-59.1-9.6-79.8-29.3-23.1-21.6-32.7-48.6-32.7-81.3 0-41.3 16.8-66.8 31.7-81.7 24.6-24 53.4-29.3 78.4-29.3 42.3 0 66.8 16.8 81.3 34.1 22.1 26.5 25 59.2 25 81.8v4.8h-155.8c0 12.5 3.4 25.9 10.1 35.1s19.2 19.7 41.8 19.7 39-10.6 48.6-27.4zm-53.8-73.5c-4.8-28.4-27.9-41.9-49.5-41.9s-44.3 14-49.1 41.9zM1397.6 0v350.5h-58.7V0zm229.3 164.9c20.7 18.8 35.1 47.6 35.1 81.7s-14.4 62.6-35.1 81.3c-17.8 16.4-44.7 29.3-84.1 29.3s-66.4-12.9-84.2-29.3c-20.7-18.7-35.1-47.6-35.1-81.3s14.4-62.9 35.1-81.7c17.8-16.3 44.7-29.3 84.2-29.3s66.3 13 84.1 29.3zm-25.5 81.7c0-32.6-25-59.1-58.6-59.1s-58.7 26.5-58.7 59.1 24.5 58.7 58.7 58.7 58.6-26.9 58.6-58.7zM1857.2 0h58.6v350.5h-58.6v-26.9c-21.2 30.3-49.1 33.6-64 33.6-63.9 0-106.2-50-106.2-111s41.8-110.6 103.4-110.6c15.8 0 47.1 2.9 66.8 33.6zm-109.6 246.2c0 33.1 24 59.1 57.7 59.1s57.7-26 57.7-59.1-24.1-58.7-57.7-58.7-57.7 25.5-57.7 58.7zm286.5 73.1l-99-177h68.2l64.5 118.3 57.7-118.3h66.3L2024 460.6h-66.3zM740.6 149.1h58.7v23.5c22.1-27.9 49.5-30.3 62-30.3 43.8 0 60.6 27.5 65.9 38 10.1-16.3 30.7-38 66.8-38 32.2 0 48.1 14.9 56.2 25.5 13.5 17.8 14.5 35.6 14.5 58.7v130.7H1006V243.8c0-24.5-5.3-35.6-9.6-40.9-7.7-9.6-18.3-10.6-24-10.6-15.9 0-26 7.3-32.2 18.3-7.7 12.5-8.2 29.3-8.2 40.4v106.2h-58.7V243.8c0-24.5-5.3-35.6-9.6-40.9-7.7-9.6-18.3-10.6-24-10.6-15.9 0-26 7.3-32.2 18.3-7.7 12.5-8.2 29.3-8.2 40.4v106.2h-58.7zM586.4 610.9v138.2h-574V610.9h18.4C10.9 584.5.5 552.9.5 518c0-62.1 28.1-98.1 54-117.9-25.7-22-54-59.3-54-117.5C.5 234 18 196 52.3 169.4c35.8-26.9 71.5-29.2 114.6-29.2h419.5v138.2H197.6c-39.7 0-55.8 8.3-61.7 13.3-8.6 6.8-12.5 16.2-12.5 29.3 0 19.8 7.5 33.3 23.7 42.3 20 12.3 49.1 12.3 63.3 12.3h376v138.1H197.6c-39.7 0-55.8 8.4-61.7 13.3-8.6 6.8-12.5 16.2-12.5 29.3 0 19.8 7.5 33.3 23.7 42.3 20 12.3 49.1 12.3 63.3 12.3zm-34.1 104V645H446.6v69.9zm0-235.3v-69.9H446.6v69.9zm0-235.3v-70H446.6v70zM412.5 714.9V645H210.4c-26.3 0-56.3-1.9-80.7-16.9a81.5 81.5 0 0 1-9.2-6.1c-20.3-15.2-31.2-37.7-31.2-65.7s13.7-46.7 25.1-55.9c16.9-13.6 44.8-20.8 83.2-20.8h214.9v-69.9H210.4c-26.3 0-56.3-2.1-80.7-17.1-3.2-1.8-6.3-3.9-9.2-5.9-20.3-15.2-31.2-37.7-31.2-65.7s13.7-46.7 25.1-55.9c16.9-13.7 44.8-20.8 83.2-20.8h214.9v-70H166.9c-39 0-66.7 1.6-93.8 22.2s-38.5 48.1-38.5 86.1c0 55.8 32.4 87.3 59.3 104.1l19.3 11.9 6.8 4.3-27.4 13.6c-26.5 13.1-58 41.4-58 101.5 0 39.2 16 71.8 47.4 96.7l27.3 21.6 11 8.7H46.5v69.9z"/><path fill="#f47c20" d="M446.6 645h105.7v69.92H446.6zm0-235.3h105.7v69.92H446.6zm0-235.4h105.7v69.92H446.6z"/></svg>