<svg xmlns="http://www.w3.org/2000/svg" width="256" height="256" viewBox="0 0 256 256"><path fill="#006866" d="M251.1 197.9V256H9.9v-58.1h7.7c-8.4-11.1-12.7-24.4-12.7-39.1 0-26.1 11.7-41.2 22.7-49.5-10.9-9.3-22.7-25-22.7-49.4 0-20.4 7.3-36.4 21.8-47.6S56.6 0 74.8 0h176.3v58.1H87.7c-16.7 0-23.5 3.5-26 5.6s-5.2 6.8-5.2 12.3c0 8.3 3.1 14 9.9 17.8C74.8 99 87.1 99 93 99h158.1v58H87.7c-16.7 0-23.5 3.5-26 5.6s-5.2 6.8-5.2 12.4c0 8.3 3.1 13.9 9.9 17.7 8.4 5.2 20.7 5.2 26.6 5.2zm-14.3 43.7v-29.4h-44.4v29.4zm0-98.9v-29.4h-44.4v29.4zm0-98.9V14.4h-44.4v29.4zm-58.7 197.8v-29.4H93c-11 0-23.6-.7-33.9-7.1a31.1 31.1 0 0 1-3.8-2.5c-8.6-6.4-13.2-15.9-13.2-27.6s5.8-19.7 10.6-23.6c7.1-5.7 18.8-8.7 35-8.7h90.4v-29.4H93c-11 0-23.6-.9-33.9-7.2-1.3-.8-2.6-1.6-3.8-2.5-8.6-6.4-13.2-15.8-13.2-27.6s5.8-19.6 10.6-23.5c7.1-5.7 18.8-8.7 35-8.7h90.4V14.4H74.8c-16.5 0-28.1.6-39.5 9.3S19.2 43.9 19.2 59.9c0 23.4 13.6 36.7 24.9 43.7l8.1 5 2.8 1.8-11.5 5.8c-11.1 5.5-24.3 17.4-24.3 42.6 0 16.5 6.7 30.2 19.9 40.7l11.4 9.1 4.7 3.6h-31v29.4z"/><path fill="#f47c20" d="M192.4 212.2h44.4v29.39h-44.4zm0-98.9h44.4v29.39h-44.4zm0-98.9h44.4v29.39h-44.4z"/></svg>