<svg xmlns="http://www.w3.org/2000/svg" width="64" height="64" viewBox="0 0 64 64"><circle cx="32" cy="32" r="32" fill="#006866"/><path fill="#f6eade" d="M30.5 40.1a14.6 14.6 0 0 0-.5 2c-.5 1.6-.8 3.2-1.4 4.7a11.2 11.2 0 0 1-1.6 3.3l-1.5 2.1-.2.2H25c-.1 0-.2-.2-.2-.3a14.9 14.9 0 0 1-.2-2.1c0-1.4-.1-2.9 0-4.3a24.4 24.4 0 0 1 .6-2.6c.1-.6.3-1.3.4-1.9s.7-2.7 1-4l.9-3.8a4.3 4.3 0 0 0-.1-.5 6.7 6.7 0 0 1-.5-3.1 6 6 0 0 1 1-3.5 3.5 3.5 0 0 1 3.2-1.7 2.6 2.6 0 0 1 2.3 1.8 4.5 4.5 0 0 1 0 2.8c-.3 1.3-.7 2.5-1 3.7l-.6 2.3a3 3 0 0 0 1.8 3.4 3.7 3.7 0 0 0 3.8-.4 6.4 6.4 0 0 0 2.5-2.9 12.4 12.4 0 0 0 1.2-3.2 16.9 16.9 0 0 0 .4-5 7.2 7.2 0 0 0-1.7-4.1 7.8 7.8 0 0 0-5.3-2.7 10.2 10.2 0 0 0-4.9.4A9.2 9.2 0 0 0 25 24a8.7 8.7 0 0 0-1.9 4 10.3 10.3 0 0 0-.1 3.5 5.7 5.7 0 0 0 1.4 2.8.8.8 0 0 1 .2.8c-.2.6-.3 1.3-.5 1.9a.7.7 0 0 1-.9.5 4.8 4.8 0 0 1-2.3-1.7 7.1 7.1 0 0 1-1.6-3.1 10.7 10.7 0 0 1-.4-4 12.5 12.5 0 0 1 1.9-5.5 12.9 12.9 0 0 1 3.4-3.6 14.1 14.1 0 0 1 3.2-1.7 12.6 12.6 0 0 1 3.8-1h3.9a9.8 9.8 0 0 1 2.9.5 12.1 12.1 0 0 1 8.3 8.6 14.8 14.8 0 0 1 .1 4.7 29.3 29.3 0 0 1-.5 2.9 11.4 11.4 0 0 1-1.5 3.6 10.9 10.9 0 0 1-2.1 2.7 8.3 8.3 0 0 1-3.2 2 7.8 7.8 0 0 1-3.3.7 6.7 6.7 0 0 1-4.7-1.7z"/></svg>